<mxfile host="app.diagrams.net" modified="2021-05-11T05:32:47.992Z" agent="5.0 (Windows NT 10.0; Win64; x64) AppleWebKit/537.36 (KHTML, like Gecko) Chrome/90.0.4430.93 Safari/537.36" etag="aw2mcgg7pMP2ircUh0vN" version="14.6.11" type="github">
  <diagram id="667UKBAZMkuKN2_vxPIx" name="Page-1">
    <mxGraphModel dx="854" dy="1568" grid="1" gridSize="10" guides="1" tooltips="1" connect="1" arrows="1" fold="1" page="1" pageScale="1" pageWidth="850" pageHeight="1100" math="0" shadow="0">
      <root>
        <mxCell id="0" />
        <mxCell id="1" parent="0" />
        <mxCell id="iq4_zU8uzsKBCmtEDNEx-7" value="Convention Center Cost" style="whiteSpace=wrap;html=1;align=center;" parent="1" vertex="1">
          <mxGeometry x="177.25" y="660" width="120" height="40" as="geometry" />
        </mxCell>
        <mxCell id="iq4_zU8uzsKBCmtEDNEx-9" value="CCID" style="ellipse;whiteSpace=wrap;html=1;align=center;" parent="1" vertex="1">
          <mxGeometry x="17.25" y="670" width="60" height="40" as="geometry" />
        </mxCell>
        <mxCell id="iq4_zU8uzsKBCmtEDNEx-10" value="Event Type ID" style="ellipse;whiteSpace=wrap;html=1;align=center;" parent="1" vertex="1">
          <mxGeometry x="7.92" y="740" width="100" height="40" as="geometry" />
        </mxCell>
        <mxCell id="iq4_zU8uzsKBCmtEDNEx-11" value="Description" style="ellipse;whiteSpace=wrap;html=1;align=center;" parent="1" vertex="1">
          <mxGeometry x="172.25" y="760" width="80" height="40" as="geometry" />
        </mxCell>
        <mxCell id="iq4_zU8uzsKBCmtEDNEx-12" value="" style="line;strokeWidth=2;html=1;rotation=20;" parent="1" vertex="1">
          <mxGeometry x="107.92" y="640" width="78.66" height="10" as="geometry" />
        </mxCell>
        <mxCell id="iq4_zU8uzsKBCmtEDNEx-13" value="" style="line;strokeWidth=2;html=1;" parent="1" vertex="1">
          <mxGeometry x="77.25" y="685" width="100" height="10" as="geometry" />
        </mxCell>
        <mxCell id="iq4_zU8uzsKBCmtEDNEx-14" value="" style="line;strokeWidth=2;html=1;rotation=-30;" parent="1" vertex="1">
          <mxGeometry x="97.24999999999997" y="720" width="100" height="10" as="geometry" />
        </mxCell>
        <mxCell id="iq4_zU8uzsKBCmtEDNEx-15" value="" style="line;strokeWidth=2;html=1;rotation=90;" parent="1" vertex="1">
          <mxGeometry x="193.5" y="723.75" width="62.5" height="10" as="geometry" />
        </mxCell>
        <mxCell id="iq4_zU8uzsKBCmtEDNEx-16" value="Description" style="ellipse;whiteSpace=wrap;html=1;align=center;" parent="1" vertex="1">
          <mxGeometry x="172.25" y="760" width="80" height="40" as="geometry" />
        </mxCell>
        <mxCell id="iq4_zU8uzsKBCmtEDNEx-24" value="User Type" style="ellipse;whiteSpace=wrap;html=1;align=center;" parent="1" vertex="1">
          <mxGeometry x="270.21000000000004" y="-136.46000000000004" width="100" height="40" as="geometry" />
        </mxCell>
        <mxCell id="iq4_zU8uzsKBCmtEDNEx-26" value="" style="line;strokeWidth=2;html=1;rotation=-225;" parent="1" vertex="1">
          <mxGeometry x="258.75" y="-73.54000000000002" width="80" height="13.54" as="geometry" />
        </mxCell>
        <mxCell id="iq4_zU8uzsKBCmtEDNEx-34" value="User Info" style="whiteSpace=wrap;html=1;align=center;" parent="1" vertex="1">
          <mxGeometry x="207.5" y="-40" width="100" height="40" as="geometry" />
        </mxCell>
        <mxCell id="iq4_zU8uzsKBCmtEDNEx-35" value="ID" style="ellipse;whiteSpace=wrap;html=1;align=center;" parent="1" vertex="1">
          <mxGeometry x="67.5" y="-80" width="60" height="50" as="geometry" />
        </mxCell>
        <mxCell id="iq4_zU8uzsKBCmtEDNEx-36" value="Name" style="ellipse;whiteSpace=wrap;html=1;align=center;" parent="1" vertex="1">
          <mxGeometry x="7.5" y="-10" width="70" height="40" as="geometry" />
        </mxCell>
        <mxCell id="iq4_zU8uzsKBCmtEDNEx-37" value="DOB" style="ellipse;whiteSpace=wrap;html=1;align=center;" parent="1" vertex="1">
          <mxGeometry x="42.5" y="60" width="60" height="40" as="geometry" />
        </mxCell>
        <mxCell id="iq4_zU8uzsKBCmtEDNEx-38" value="Address" style="ellipse;whiteSpace=wrap;html=1;align=center;" parent="1" vertex="1">
          <mxGeometry x="137.5" y="70" width="70" height="40" as="geometry" />
        </mxCell>
        <mxCell id="iq4_zU8uzsKBCmtEDNEx-39" value="Email" style="ellipse;whiteSpace=wrap;html=1;align=center;" parent="1" vertex="1">
          <mxGeometry x="377.5" y="-60" width="70" height="40" as="geometry" />
        </mxCell>
        <mxCell id="iq4_zU8uzsKBCmtEDNEx-40" value="Phone No." style="ellipse;whiteSpace=wrap;html=1;align=center;" parent="1" vertex="1">
          <mxGeometry x="336.89" y="60" width="70" height="40" as="geometry" />
        </mxCell>
        <mxCell id="iq4_zU8uzsKBCmtEDNEx-41" value="" style="line;strokeWidth=1;rotatable=0;dashed=0;labelPosition=right;align=left;verticalAlign=middle;spacingTop=0;spacingLeft=6;points=[];portConstraint=eastwest;" parent="1" vertex="1">
          <mxGeometry x="257.5" y="-80" height="10" as="geometry" />
        </mxCell>
        <mxCell id="iq4_zU8uzsKBCmtEDNEx-42" value="" style="line;strokeWidth=2;html=1;rotation=-10;" parent="1" vertex="1">
          <mxGeometry x="307.08" y="-29.779999999999973" width="75" height="10" as="geometry" />
        </mxCell>
        <mxCell id="iq4_zU8uzsKBCmtEDNEx-43" value="" style="line;strokeWidth=2;html=1;rotation=10;" parent="1" vertex="1">
          <mxGeometry x="307.5" y="5" width="100" height="10" as="geometry" />
        </mxCell>
        <mxCell id="iq4_zU8uzsKBCmtEDNEx-44" value="" style="line;strokeWidth=2;html=1;rotation=30;" parent="1" vertex="1">
          <mxGeometry x="266.16" y="25" width="115" height="10" as="geometry" />
        </mxCell>
        <mxCell id="iq4_zU8uzsKBCmtEDNEx-45" value="" style="line;strokeWidth=2;html=1;rotation=-45;" parent="1" vertex="1">
          <mxGeometry x="156.89" y="30" width="100.61" height="10" as="geometry" />
        </mxCell>
        <mxCell id="iq4_zU8uzsKBCmtEDNEx-46" value="" style="line;strokeWidth=2;html=1;rotation=-30;" parent="1" vertex="1">
          <mxGeometry x="78.84" y="25" width="140" height="10" as="geometry" />
        </mxCell>
        <mxCell id="iq4_zU8uzsKBCmtEDNEx-47" value="" style="line;strokeWidth=2;html=1;rotation=-15;" parent="1" vertex="1">
          <mxGeometry x="72.94" y="-16.50999999999999" width="134.73" height="10" as="geometry" />
        </mxCell>
        <mxCell id="iq4_zU8uzsKBCmtEDNEx-48" value="" style="line;strokeWidth=2;html=1;rotation=5;" parent="1" vertex="1">
          <mxGeometry x="122.72000000000003" y="-48.69999999999999" width="84.91" height="10" as="geometry" />
        </mxCell>
        <mxCell id="iq4_zU8uzsKBCmtEDNEx-103" value="Employee" style="whiteSpace=wrap;html=1;align=center;" parent="1" vertex="1">
          <mxGeometry x="180.69" y="230" width="100" height="40" as="geometry" />
        </mxCell>
        <mxCell id="iq4_zU8uzsKBCmtEDNEx-105" value="Joining Date" style="ellipse;whiteSpace=wrap;html=1;align=center;" parent="1" vertex="1">
          <mxGeometry x="220.69" y="335" width="90" height="40" as="geometry" />
        </mxCell>
        <mxCell id="iq4_zU8uzsKBCmtEDNEx-106" value="" style="line;strokeWidth=2;html=1;" parent="1" vertex="1">
          <mxGeometry x="130.69" y="245" width="50" height="10" as="geometry" />
        </mxCell>
        <mxCell id="iq4_zU8uzsKBCmtEDNEx-107" value="" style="line;strokeWidth=2;html=1;rotation=75;" parent="1" vertex="1">
          <mxGeometry x="225.27999999999997" y="299.90999999999997" width="66.65" height="10" as="geometry" />
        </mxCell>
        <mxCell id="iq4_zU8uzsKBCmtEDNEx-108" value="" style="line;strokeWidth=2;html=1;rotation=-30;" parent="1" vertex="1">
          <mxGeometry x="100.85" y="294.91" width="128.66" height="20" as="geometry" />
        </mxCell>
        <mxCell id="iq4_zU8uzsKBCmtEDNEx-110" value="" style="line;strokeWidth=2;html=1;rotation=15;" parent="1" vertex="1">
          <mxGeometry x="280.69" y="217.49999999999997" width="64.56" height="65" as="geometry" />
        </mxCell>
        <mxCell id="iq4_zU8uzsKBCmtEDNEx-111" value="Id" style="ellipse;whiteSpace=wrap;html=1;align=center;fontStyle=4;" parent="1" vertex="1">
          <mxGeometry x="30.689999999999998" y="230" width="100" height="40" as="geometry" />
        </mxCell>
        <mxCell id="iq4_zU8uzsKBCmtEDNEx-112" value="Employeetype" style="ellipse;whiteSpace=wrap;html=1;align=center;" parent="1" vertex="1">
          <mxGeometry x="340" y="242.5" width="100" height="40" as="geometry" />
        </mxCell>
        <mxCell id="iq4_zU8uzsKBCmtEDNEx-113" value="Salary" style="ellipse;whiteSpace=wrap;html=1;align=center;" parent="1" vertex="1">
          <mxGeometry x="40.00999999999999" y="320" width="100" height="40" as="geometry" />
        </mxCell>
        <mxCell id="Gzfp780XZHJY38I-ThZH-4" value="" style="rounded=0;orthogonalLoop=1;jettySize=auto;html=1;entryX=0.5;entryY=1;entryDx=0;entryDy=0;endArrow=none;endFill=0;" parent="1" source="iq4_zU8uzsKBCmtEDNEx-116" target="iq4_zU8uzsKBCmtEDNEx-34" edge="1">
          <mxGeometry relative="1" as="geometry" />
        </mxCell>
        <mxCell id="Gzfp780XZHJY38I-ThZH-5" value="" style="edgeStyle=none;rounded=0;orthogonalLoop=1;jettySize=auto;html=1;endArrow=none;endFill=0;entryX=0.5;entryY=0;entryDx=0;entryDy=0;" parent="1" source="iq4_zU8uzsKBCmtEDNEx-116" target="iq4_zU8uzsKBCmtEDNEx-103" edge="1">
          <mxGeometry relative="1" as="geometry" />
        </mxCell>
        <mxCell id="iq4_zU8uzsKBCmtEDNEx-116" value="is a" style="shape=rhombus;perimeter=rhombusPerimeter;whiteSpace=wrap;html=1;align=center;" parent="1" vertex="1">
          <mxGeometry x="234.14" y="70" width="63.11" height="60" as="geometry" />
        </mxCell>
        <mxCell id="iq4_zU8uzsKBCmtEDNEx-117" value="" style="endArrow=none;html=1;rounded=0;" parent="1" target="iq4_zU8uzsKBCmtEDNEx-118" edge="1">
          <mxGeometry relative="1" as="geometry">
            <mxPoint x="380" y="240" as="sourcePoint" />
            <mxPoint x="380" y="240" as="targetPoint" />
          </mxGeometry>
        </mxCell>
        <mxCell id="iq4_zU8uzsKBCmtEDNEx-118" value="staff" style="ellipse;whiteSpace=wrap;html=1;align=center;" parent="1" vertex="1">
          <mxGeometry x="322.5" y="160" width="67.5" height="40" as="geometry" />
        </mxCell>
        <mxCell id="iq4_zU8uzsKBCmtEDNEx-123" value="" style="rounded=0;orthogonalLoop=1;jettySize=auto;html=1;endArrow=none;endFill=0;" parent="1" source="iq4_zU8uzsKBCmtEDNEx-119" target="iq4_zU8uzsKBCmtEDNEx-112" edge="1">
          <mxGeometry relative="1" as="geometry" />
        </mxCell>
        <mxCell id="iq4_zU8uzsKBCmtEDNEx-119" value="Manager" style="ellipse;whiteSpace=wrap;html=1;align=center;" parent="1" vertex="1">
          <mxGeometry x="412.31" y="160" width="58.96" height="40" as="geometry" />
        </mxCell>
        <mxCell id="iq4_zU8uzsKBCmtEDNEx-126" value="" style="rounded=0;orthogonalLoop=1;jettySize=auto;html=1;endArrow=none;endFill=0;entryX=1;entryY=0.5;entryDx=0;entryDy=0;" parent="1" source="iq4_zU8uzsKBCmtEDNEx-124" target="iq4_zU8uzsKBCmtEDNEx-112" edge="1">
          <mxGeometry relative="1" as="geometry">
            <mxPoint x="515" y="320" as="targetPoint" />
          </mxGeometry>
        </mxCell>
        <mxCell id="iq4_zU8uzsKBCmtEDNEx-124" value="Accountant" style="ellipse;whiteSpace=wrap;html=1;align=center;" parent="1" vertex="1">
          <mxGeometry x="471.27" y="190" width="70" height="40" as="geometry" />
        </mxCell>
        <mxCell id="iq4_zU8uzsKBCmtEDNEx-127" value="Volunteer" style="ellipse;whiteSpace=wrap;html=1;align=center;" parent="1" vertex="1">
          <mxGeometry x="490" y="242.5" width="70" height="40" as="geometry" />
        </mxCell>
        <mxCell id="iq4_zU8uzsKBCmtEDNEx-128" value="" style="endArrow=none;html=1;rounded=0;entryX=0;entryY=0.5;entryDx=0;entryDy=0;exitX=0.97;exitY=0.738;exitDx=0;exitDy=0;exitPerimeter=0;" parent="1" source="iq4_zU8uzsKBCmtEDNEx-112" target="iq4_zU8uzsKBCmtEDNEx-127" edge="1">
          <mxGeometry relative="1" as="geometry">
            <mxPoint x="470" y="334.91" as="sourcePoint" />
            <mxPoint x="470" y="264.91" as="targetPoint" />
          </mxGeometry>
        </mxCell>
        <mxCell id="iq4_zU8uzsKBCmtEDNEx-152" value="Event" style="whiteSpace=wrap;html=1;align=center;" parent="1" vertex="1">
          <mxGeometry x="729.04" y="394.91" width="100" height="40" as="geometry" />
        </mxCell>
        <mxCell id="iq4_zU8uzsKBCmtEDNEx-154" value="CustomerID" style="ellipse;whiteSpace=wrap;html=1;align=center;" parent="1" vertex="1">
          <mxGeometry x="615" y="354.91" width="70" height="40" as="geometry" />
        </mxCell>
        <mxCell id="iq4_zU8uzsKBCmtEDNEx-157" value="FPID" style="ellipse;whiteSpace=wrap;html=1;align=center;" parent="1" vertex="1">
          <mxGeometry x="829.04" y="314.91" width="60" height="40" as="geometry" />
        </mxCell>
        <mxCell id="iq4_zU8uzsKBCmtEDNEx-158" value="Guest" style="ellipse;whiteSpace=wrap;html=1;align=center;" parent="1" vertex="1">
          <mxGeometry x="899.04" y="329.91" width="70" height="40" as="geometry" />
        </mxCell>
        <mxCell id="iq4_zU8uzsKBCmtEDNEx-159" value="Date" style="ellipse;whiteSpace=wrap;html=1;align=center;" parent="1" vertex="1">
          <mxGeometry x="969.04" y="354.91" width="70" height="40" as="geometry" />
        </mxCell>
        <mxCell id="iq4_zU8uzsKBCmtEDNEx-160" value="Status" style="ellipse;whiteSpace=wrap;html=1;align=center;" parent="1" vertex="1">
          <mxGeometry x="989.3700000000001" y="404.95" width="65" height="40" as="geometry" />
        </mxCell>
        <mxCell id="iq4_zU8uzsKBCmtEDNEx-161" value="Reason" style="ellipse;whiteSpace=wrap;html=1;align=center;" parent="1" vertex="1">
          <mxGeometry x="922.9300000000001" y="455.3500000000001" width="80" height="40" as="geometry" />
        </mxCell>
        <mxCell id="iq4_zU8uzsKBCmtEDNEx-162" value="Employee ID" style="ellipse;whiteSpace=wrap;html=1;align=center;" parent="1" vertex="1">
          <mxGeometry x="653.73" y="504.91" width="70" height="40" as="geometry" />
        </mxCell>
        <mxCell id="iq4_zU8uzsKBCmtEDNEx-163" value="Total Cost" style="ellipse;whiteSpace=wrap;html=1;align=center;" parent="1" vertex="1">
          <mxGeometry x="850.96" y="504.91" width="100" height="40" as="geometry" />
        </mxCell>
        <mxCell id="iq4_zU8uzsKBCmtEDNEx-164" value="" style="line;strokeWidth=2;html=1;rotation=60;" parent="1" vertex="1">
          <mxGeometry x="705.29" y="378.1000000000001" width="35" height="10" as="geometry" />
        </mxCell>
        <mxCell id="iq4_zU8uzsKBCmtEDNEx-166" value="" style="line;strokeWidth=2;html=1;rotation=-15;" parent="1" vertex="1">
          <mxGeometry x="644.05" y="434.45" width="86.25" height="10" as="geometry" />
        </mxCell>
        <mxCell id="iq4_zU8uzsKBCmtEDNEx-167" value="" style="line;strokeWidth=2;html=1;rotation=-25;" parent="1" vertex="1">
          <mxGeometry x="640.74" y="455.3500000000001" width="110.61" height="10" as="geometry" />
        </mxCell>
        <mxCell id="iq4_zU8uzsKBCmtEDNEx-168" value="" style="line;strokeWidth=2;html=1;rotation=-45;" parent="1" vertex="1">
          <mxGeometry x="680.02" y="468.3" width="100.42" height="10" as="geometry" />
        </mxCell>
        <mxCell id="iq4_zU8uzsKBCmtEDNEx-169" value="" style="line;strokeWidth=2;html=1;rotation=-225;" parent="1" vertex="1">
          <mxGeometry x="789.28" y="370.12000000000006" width="61.6" height="10" as="geometry" />
        </mxCell>
        <mxCell id="iq4_zU8uzsKBCmtEDNEx-170" value="" style="line;strokeWidth=2;html=1;rotation=-15;" parent="1" vertex="1">
          <mxGeometry x="827.9300000000001" y="376.50000000000006" width="95" height="10" as="geometry" />
        </mxCell>
        <mxCell id="iq4_zU8uzsKBCmtEDNEx-171" value="" style="line;strokeWidth=2;html=1;rotation=-15;" parent="1" vertex="1">
          <mxGeometry x="828.77" y="394.95" width="144.39" height="10" as="geometry" />
        </mxCell>
        <mxCell id="iq4_zU8uzsKBCmtEDNEx-172" value="" style="line;strokeWidth=2;html=1;" parent="1" vertex="1">
          <mxGeometry x="829.04" y="424.45" width="160" height="10" as="geometry" />
        </mxCell>
        <mxCell id="iq4_zU8uzsKBCmtEDNEx-173" value="" style="line;strokeWidth=2;html=1;rotation=15;" parent="1" vertex="1">
          <mxGeometry x="820.4300000000001" y="445.3500000000001" width="110" height="10" as="geometry" />
        </mxCell>
        <mxCell id="iq4_zU8uzsKBCmtEDNEx-174" value="" style="line;strokeWidth=2;html=1;rotation=45;" parent="1" vertex="1">
          <mxGeometry x="780.96" y="468.3" width="106.16" height="10" as="geometry" />
        </mxCell>
        <mxCell id="iq4_zU8uzsKBCmtEDNEx-175" value="Event Booking" style="whiteSpace=wrap;html=1;align=center;" parent="1" vertex="1">
          <mxGeometry x="729.04" y="394.95" width="100" height="40" as="geometry" />
        </mxCell>
        <mxCell id="iq4_zU8uzsKBCmtEDNEx-180" value="FPID" style="ellipse;whiteSpace=wrap;html=1;align=center;" parent="1" vertex="1">
          <mxGeometry x="829.04" y="314.91" width="60" height="40" as="geometry" />
        </mxCell>
        <mxCell id="iq4_zU8uzsKBCmtEDNEx-181" value="Guest" style="ellipse;whiteSpace=wrap;html=1;align=center;" parent="1" vertex="1">
          <mxGeometry x="899.04" y="329.91" width="70" height="40" as="geometry" />
        </mxCell>
        <mxCell id="iq4_zU8uzsKBCmtEDNEx-182" value="Date" style="ellipse;whiteSpace=wrap;html=1;align=center;" parent="1" vertex="1">
          <mxGeometry x="969.04" y="354.91" width="70" height="40" as="geometry" />
        </mxCell>
        <mxCell id="iq4_zU8uzsKBCmtEDNEx-183" value="Status" style="ellipse;whiteSpace=wrap;html=1;align=center;" parent="1" vertex="1">
          <mxGeometry x="989.3700000000001" y="404.95" width="65" height="40" as="geometry" />
        </mxCell>
        <mxCell id="iq4_zU8uzsKBCmtEDNEx-184" value="Reason" style="ellipse;whiteSpace=wrap;html=1;align=center;" parent="1" vertex="1">
          <mxGeometry x="922.9300000000001" y="455.3500000000001" width="80" height="40" as="geometry" />
        </mxCell>
        <mxCell id="iq4_zU8uzsKBCmtEDNEx-185" value="Employee ID" style="ellipse;whiteSpace=wrap;html=1;align=center;" parent="1" vertex="1">
          <mxGeometry x="653.73" y="504.91" width="70" height="40" as="geometry" />
        </mxCell>
        <mxCell id="iq4_zU8uzsKBCmtEDNEx-186" value="Total Cost" style="ellipse;whiteSpace=wrap;html=1;align=center;" parent="1" vertex="1">
          <mxGeometry x="850.96" y="504.91" width="100" height="40" as="geometry" />
        </mxCell>
        <mxCell id="iq4_zU8uzsKBCmtEDNEx-187" value="" style="line;strokeWidth=2;html=1;rotation=60;" parent="1" vertex="1">
          <mxGeometry x="705.29" y="378.1000000000001" width="35" height="10" as="geometry" />
        </mxCell>
        <mxCell id="iq4_zU8uzsKBCmtEDNEx-189" value="" style="line;strokeWidth=2;html=1;rotation=-15;" parent="1" vertex="1">
          <mxGeometry x="644.05" y="434.45" width="86.25" height="10" as="geometry" />
        </mxCell>
        <mxCell id="iq4_zU8uzsKBCmtEDNEx-190" value="" style="line;strokeWidth=2;html=1;rotation=-25;" parent="1" vertex="1">
          <mxGeometry x="640.74" y="455.3500000000001" width="110.61" height="10" as="geometry" />
        </mxCell>
        <mxCell id="iq4_zU8uzsKBCmtEDNEx-191" value="" style="line;strokeWidth=2;html=1;rotation=-45;" parent="1" vertex="1">
          <mxGeometry x="680.02" y="468.3" width="100.42" height="10" as="geometry" />
        </mxCell>
        <mxCell id="iq4_zU8uzsKBCmtEDNEx-192" value="" style="line;strokeWidth=2;html=1;rotation=-225;" parent="1" vertex="1">
          <mxGeometry x="789.28" y="370.12000000000006" width="61.6" height="10" as="geometry" />
        </mxCell>
        <mxCell id="iq4_zU8uzsKBCmtEDNEx-193" value="" style="line;strokeWidth=2;html=1;rotation=-15;" parent="1" vertex="1">
          <mxGeometry x="827.9300000000001" y="376.50000000000006" width="95" height="10" as="geometry" />
        </mxCell>
        <mxCell id="iq4_zU8uzsKBCmtEDNEx-194" value="" style="line;strokeWidth=2;html=1;rotation=-15;" parent="1" vertex="1">
          <mxGeometry x="828.77" y="394.95" width="144.39" height="10" as="geometry" />
        </mxCell>
        <mxCell id="iq4_zU8uzsKBCmtEDNEx-195" value="" style="line;strokeWidth=2;html=1;" parent="1" vertex="1">
          <mxGeometry x="829.04" y="424.45" width="160" height="10" as="geometry" />
        </mxCell>
        <mxCell id="iq4_zU8uzsKBCmtEDNEx-196" value="" style="line;strokeWidth=2;html=1;rotation=15;" parent="1" vertex="1">
          <mxGeometry x="820.4300000000001" y="445.3500000000001" width="110" height="10" as="geometry" />
        </mxCell>
        <mxCell id="iq4_zU8uzsKBCmtEDNEx-197" value="" style="line;strokeWidth=2;html=1;rotation=45;" parent="1" vertex="1">
          <mxGeometry x="780.96" y="468.3" width="106.16" height="10" as="geometry" />
        </mxCell>
        <mxCell id="iq4_zU8uzsKBCmtEDNEx-198" value="Event Type" style="rounded=0;whiteSpace=wrap;html=1;" parent="1" vertex="1">
          <mxGeometry x="130.68999999999994" y="524.45" width="120" height="40" as="geometry" />
        </mxCell>
        <mxCell id="iq4_zU8uzsKBCmtEDNEx-200" value="Name" style="ellipse;whiteSpace=wrap;html=1;align=center;" parent="1" vertex="1">
          <mxGeometry x="220.68999999999994" y="434.45" width="60" height="40" as="geometry" />
        </mxCell>
        <mxCell id="iq4_zU8uzsKBCmtEDNEx-201" value="" style="line;strokeWidth=2;direction=south;html=1;rotation=15;" parent="1" vertex="1">
          <mxGeometry x="240.68999999999994" y="474.45" width="10" height="50" as="geometry" />
        </mxCell>
        <mxCell id="iq4_zU8uzsKBCmtEDNEx-202" value="" style="line;strokeWidth=2;direction=south;html=1;rotation=-30;" parent="1" vertex="1">
          <mxGeometry x="163.18999999999994" y="466.46" width="10" height="60" as="geometry" />
        </mxCell>
        <mxCell id="iq4_zU8uzsKBCmtEDNEx-203" value="Eventtype_Id" style="ellipse;whiteSpace=wrap;html=1;align=center;fontStyle=4;" parent="1" vertex="1">
          <mxGeometry x="93.5" y="430.35" width="100" height="40" as="geometry" />
        </mxCell>
        <mxCell id="iq4_zU8uzsKBCmtEDNEx-205" value="Id" style="ellipse;whiteSpace=wrap;html=1;align=center;fontStyle=4;" parent="1" vertex="1">
          <mxGeometry x="679.04" y="329.91" width="56.27" height="40" as="geometry" />
        </mxCell>
        <mxCell id="iq4_zU8uzsKBCmtEDNEx-206" value="Eventtype_Id" style="ellipse;whiteSpace=wrap;html=1;align=center;" parent="1" vertex="1">
          <mxGeometry x="549.04" y="428.3" width="100" height="40" as="geometry" />
        </mxCell>
        <mxCell id="iq4_zU8uzsKBCmtEDNEx-208" value="CCID" style="ellipse;whiteSpace=wrap;html=1;align=center;" parent="1" vertex="1">
          <mxGeometry x="553.73" y="470.35" width="100" height="40" as="geometry" />
        </mxCell>
        <mxCell id="iq4_zU8uzsKBCmtEDNEx-210" value="" style="endArrow=none;html=1;rounded=0;exitX=1;exitY=0;exitDx=0;exitDy=0;" parent="1" source="iq4_zU8uzsKBCmtEDNEx-183" target="iq4_zU8uzsKBCmtEDNEx-211" edge="1">
          <mxGeometry relative="1" as="geometry">
            <mxPoint x="1050" y="406.97" as="sourcePoint" />
            <mxPoint x="1130" y="406.97" as="targetPoint" />
          </mxGeometry>
        </mxCell>
        <mxCell id="iq4_zU8uzsKBCmtEDNEx-211" value="Pending" style="ellipse;whiteSpace=wrap;html=1;align=center;" parent="1" vertex="1">
          <mxGeometry x="1039.04" y="348.1" width="70.96" height="40" as="geometry" />
        </mxCell>
        <mxCell id="iq4_zU8uzsKBCmtEDNEx-212" value="Approve&lt;span style=&quot;color: rgba(0 , 0 , 0 , 0) ; font-family: monospace ; font-size: 0px&quot;&gt;%3CmxGraphModel%3E%3Croot%3E%3CmxCell%20id%3D%220%22%2F%3E%3CmxCell%20id%3D%221%22%20parent%3D%220%22%2F%3E%3CmxCell%20id%3D%222%22%20value%3D%22Event%20Type%22%20style%3D%22rounded%3D0%3BwhiteSpace%3Dwrap%3Bhtml%3D1%3B%22%20vertex%3D%221%22%20parent%3D%221%22%3E%3CmxGeometry%20x%3D%2290%22%20y%3D%22140%22%20width%3D%22120%22%20height%3D%2240%22%20as%3D%22geometry%22%2F%3E%3C%2FmxCell%3E%3CmxCell%20id%3D%223%22%20value%3D%22ID%22%20style%3D%22ellipse%3BwhiteSpace%3Dwrap%3Bhtml%3D1%3Balign%3Dcenter%3B%22%20vertex%3D%221%22%20parent%3D%221%22%3E%3CmxGeometry%20x%3D%2260%22%20y%3D%2250%22%20width%3D%2260%22%20height%3D%2240%22%20as%3D%22geometry%22%2F%3E%3C%2FmxCell%3E%3CmxCell%20id%3D%224%22%20value%3D%22Name%22%20style%3D%22ellipse%3BwhiteSpace%3Dwrap%3Bhtml%3D1%3Balign%3Dcenter%3B%22%20vertex%3D%221%22%20parent%3D%221%22%3E%3CmxGeometry%20x%3D%22180%22%20y%3D%2250%22%20width%3D%2260%22%20height%3D%2240%22%20as%3D%22geometry%22%2F%3E%3C%2FmxCell%3E%3CmxCell%20id%3D%225%22%20value%3D%22%22%20style%3D%22line%3BstrokeWidth%3D2%3Bdirection%3Dsouth%3Bhtml%3D1%3Brotation%3D15%3B%22%20vertex%3D%221%22%20parent%3D%221%22%3E%3CmxGeometry%20x%3D%22200%22%20y%3D%2290%22%20width%3D%2210%22%20height%3D%2250%22%20as%3D%22geometry%22%2F%3E%3C%2FmxCell%3E%3CmxCell%20id%3D%226%22%20value%3D%22%22%20style%3D%22line%3BstrokeWidth%3D2%3Bdirection%3Dsouth%3Bhtml%3D1%3Brotation%3D-30%3B%22%20vertex%3D%221%22%20parent%3D%221%22%3E%3CmxGeometry%20x%3D%22122.5%22%20y%3D%2282.01%22%20width%3D%2210%22%20height%3D%2260%22%20as%3D%22geometry%22%2F%3E%3C%2FmxCell%3E%3C%2Froot%3E%3C%2FmxGraphModel%3E&lt;/span&gt;" style="ellipse;whiteSpace=wrap;html=1;align=center;" parent="1" vertex="1">
          <mxGeometry x="1110" y="369.91" width="70" height="40" as="geometry" />
        </mxCell>
        <mxCell id="iq4_zU8uzsKBCmtEDNEx-213" value="" style="endArrow=none;html=1;rounded=0;entryX=0;entryY=1;entryDx=0;entryDy=0;" parent="1" target="iq4_zU8uzsKBCmtEDNEx-212" edge="1">
          <mxGeometry relative="1" as="geometry">
            <mxPoint x="1054.37" y="415.36" as="sourcePoint" />
            <mxPoint x="1140.33" y="414.90999999999997" as="targetPoint" />
          </mxGeometry>
        </mxCell>
        <mxCell id="iq4_zU8uzsKBCmtEDNEx-214" value="Reject&lt;span style=&quot;color: rgba(0 , 0 , 0 , 0) ; font-family: monospace ; font-size: 0px&quot;&gt;%3CmxGraphModel%3E%3Croot%3E%3CmxCell%20id%3D%220%22%2F%3E%3CmxCell%20id%3D%221%22%20parent%3D%220%22%2F%3E%3CmxCell%20id%3D%222%22%20value%3D%22Event%20Type%22%20style%3D%22rounded%3D0%3BwhiteSpace%3Dwrap%3Bhtml%3D1%3B%22%20vertex%3D%221%22%20parent%3D%221%22%3E%3CmxGeometry%20x%3D%2290%22%20y%3D%22140%22%20width%3D%22120%22%20height%3D%2240%22%20as%3D%22geometry%22%2F%3E%3C%2FmxCell%3E%3CmxCell%20id%3D%223%22%20value%3D%22ID%22%20style%3D%22ellipse%3BwhiteSpace%3Dwrap%3Bhtml%3D1%3Balign%3Dcenter%3B%22%20vertex%3D%221%22%20parent%3D%221%22%3E%3CmxGeometry%20x%3D%2260%22%20y%3D%2250%22%20width%3D%2260%22%20height%3D%2240%22%20as%3D%22geometry%22%2F%3E%3C%2FmxCell%3E%3CmxCell%20id%3D%224%22%20value%3D%22Name%22%20style%3D%22ellipse%3BwhiteSpace%3Dwrap%3Bhtml%3D1%3Balign%3Dcenter%3B%22%20vertex%3D%221%22%20parent%3D%221%22%3E%3CmxGeometry%20x%3D%22180%22%20y%3D%2250%22%20width%3D%2260%22%20height%3D%2240%22%20as%3D%22geometry%22%2F%3E%3C%2FmxCell%3E%3CmxCell%20id%3D%225%22%20value%3D%22%22%20style%3D%22line%3BstrokeWidth%3D2%3Bdirection%3Dsouth%3Bhtml%3D1%3Brotation%3D15%3B%22%20vertex%3D%221%22%20parent%3D%221%22%3E%3CmxGeometry%20x%3D%22200%22%20y%3D%2290%22%20width%3D%2210%22%20height%3D%2250%22%20as%3D%22geometry%22%2F%3E%3C%2FmxCell%3E%3CmxCell%20id%3D%226%22%20value%3D%22%22%20style%3D%22line%3BstrokeWidth%3D2%3Bdirection%3Dsouth%3Bhtml%3D1%3Brotation%3D-30%3B%22%20vertex%3D%221%22%20parent%3D%221%22%3E%3CmxGeometry%20x%3D%22122.5%22%20y%3D%2282.01%22%20width%3D%2210%22%20height%3D%2260%22%20as%3D%22geometry%22%2F%3E%3C%2FmxCell%3E%3C%2Froot%3E%3C%2FmxGraphModel%3E&lt;/span&gt;" style="ellipse;whiteSpace=wrap;html=1;align=center;" parent="1" vertex="1">
          <mxGeometry x="1120" y="416.97" width="70" height="40" as="geometry" />
        </mxCell>
        <mxCell id="iq4_zU8uzsKBCmtEDNEx-215" value="" style="endArrow=none;html=1;rounded=0;entryX=0;entryY=0.5;entryDx=0;entryDy=0;exitX=1;exitY=0.5;exitDx=0;exitDy=0;" parent="1" source="iq4_zU8uzsKBCmtEDNEx-183" target="iq4_zU8uzsKBCmtEDNEx-214" edge="1">
          <mxGeometry relative="1" as="geometry">
            <mxPoint x="1064.37" y="425.3600000000001" as="sourcePoint" />
            <mxPoint x="1130.251262658471" y="414.05213562373115" as="targetPoint" />
          </mxGeometry>
        </mxCell>
        <mxCell id="iq4_zU8uzsKBCmtEDNEx-216" value="Booked" style="ellipse;whiteSpace=wrap;html=1;align=center;" parent="1" vertex="1">
          <mxGeometry x="1100" y="456.97" width="70" height="40" as="geometry" />
        </mxCell>
        <mxCell id="iq4_zU8uzsKBCmtEDNEx-217" value="" style="endArrow=none;html=1;rounded=0;exitX=1;exitY=1;exitDx=0;exitDy=0;" parent="1" source="iq4_zU8uzsKBCmtEDNEx-183" target="iq4_zU8uzsKBCmtEDNEx-216" edge="1">
          <mxGeometry relative="1" as="geometry">
            <mxPoint x="1064.37" y="434.95000000000005" as="sourcePoint" />
            <mxPoint x="1130" y="446.97" as="targetPoint" />
          </mxGeometry>
        </mxCell>
        <mxCell id="iq4_zU8uzsKBCmtEDNEx-220" value="" style="edgeStyle=none;rounded=0;orthogonalLoop=1;jettySize=auto;html=1;endArrow=none;endFill=0;entryX=1;entryY=0.5;entryDx=0;entryDy=0;" parent="1" source="iq4_zU8uzsKBCmtEDNEx-218" target="iq4_zU8uzsKBCmtEDNEx-184" edge="1">
          <mxGeometry relative="1" as="geometry" />
        </mxCell>
        <mxCell id="iq4_zU8uzsKBCmtEDNEx-218" value="EmployeeId" style="ellipse;whiteSpace=wrap;html=1;align=center;" parent="1" vertex="1">
          <mxGeometry x="1020" y="495.35" width="70" height="40" as="geometry" />
        </mxCell>
        <mxCell id="iq4_zU8uzsKBCmtEDNEx-222" value="Food Package" style="whiteSpace=wrap;html=1;align=center;" parent="1" vertex="1">
          <mxGeometry x="799.37" y="675" width="100" height="40" as="geometry" />
        </mxCell>
        <mxCell id="iq4_zU8uzsKBCmtEDNEx-224" value="Description" style="ellipse;whiteSpace=wrap;html=1;align=center;" parent="1" vertex="1">
          <mxGeometry x="954.37" y="675" width="100" height="40" as="geometry" />
        </mxCell>
        <mxCell id="iq4_zU8uzsKBCmtEDNEx-225" value="Cost per person" style="ellipse;whiteSpace=wrap;html=1;align=center;" parent="1" vertex="1">
          <mxGeometry x="914.37" y="595" width="100" height="40" as="geometry" />
        </mxCell>
        <mxCell id="iq4_zU8uzsKBCmtEDNEx-226" value="" style="line;strokeWidth=2;html=1;rotation=-210;" parent="1" vertex="1">
          <mxGeometry x="849.7" y="646.25" width="85" height="10" as="geometry" />
        </mxCell>
        <mxCell id="iq4_zU8uzsKBCmtEDNEx-227" value="" style="line;strokeWidth=2;html=1;" parent="1" vertex="1">
          <mxGeometry x="899.37" y="695" width="55" height="10" as="geometry" />
        </mxCell>
        <mxCell id="iq4_zU8uzsKBCmtEDNEx-228" value="" style="line;strokeWidth=2;html=1;rotation=30;" parent="1" vertex="1">
          <mxGeometry x="837.36" y="725" width="90" height="25" as="geometry" />
        </mxCell>
        <mxCell id="iq4_zU8uzsKBCmtEDNEx-229" value="Id" style="ellipse;whiteSpace=wrap;html=1;align=center;fontStyle=4;" parent="1" vertex="1">
          <mxGeometry x="920" y="740" width="100" height="40" as="geometry" />
        </mxCell>
        <mxCell id="iq4_zU8uzsKBCmtEDNEx-230" value="Id" style="ellipse;whiteSpace=wrap;html=1;align=center;fontStyle=4;" parent="1" vertex="1">
          <mxGeometry x="63.63" y="606.25" width="52.75" height="40" as="geometry" />
        </mxCell>
        <mxCell id="iq4_zU8uzsKBCmtEDNEx-231" value="Convention Center" style="whiteSpace=wrap;html=1;align=center;" parent="1" vertex="1">
          <mxGeometry x="473.73" y="840" width="110" height="40" as="geometry" />
        </mxCell>
        <mxCell id="iq4_zU8uzsKBCmtEDNEx-232" value="ID" style="ellipse;whiteSpace=wrap;html=1;align=center;fontStyle=4;" parent="1" vertex="1">
          <mxGeometry x="363.73" y="840" width="70" height="40" as="geometry" />
        </mxCell>
        <mxCell id="iq4_zU8uzsKBCmtEDNEx-236" value="" style="line;strokeWidth=2;direction=south;html=1;rotation=-45;" parent="1" vertex="1">
          <mxGeometry x="453.12" y="794.39" width="10" height="50" as="geometry" />
        </mxCell>
        <mxCell id="iq4_zU8uzsKBCmtEDNEx-237" value="" style="line;strokeWidth=2;html=1;" parent="1" vertex="1">
          <mxGeometry x="433.73" y="860" width="40" height="10" as="geometry" />
        </mxCell>
        <mxCell id="iq4_zU8uzsKBCmtEDNEx-238" value="" style="line;strokeWidth=2;html=1;rotation=-30;" parent="1" vertex="1">
          <mxGeometry x="541.72" y="812.5" width="80" height="10" as="geometry" />
        </mxCell>
        <mxCell id="iq4_zU8uzsKBCmtEDNEx-239" value="" style="line;strokeWidth=2;html=1;" parent="1" vertex="1">
          <mxGeometry x="583.73" y="852.01" width="40" height="10" as="geometry" />
        </mxCell>
        <mxCell id="iq4_zU8uzsKBCmtEDNEx-240" value="Address" style="ellipse;whiteSpace=wrap;html=1;align=center;" parent="1" vertex="1">
          <mxGeometry x="363.73" y="772.5" width="100" height="40" as="geometry" />
        </mxCell>
        <mxCell id="iq4_zU8uzsKBCmtEDNEx-241" value="Description" style="ellipse;whiteSpace=wrap;html=1;align=center;" parent="1" vertex="1">
          <mxGeometry x="600" y="770" width="100" height="40" as="geometry" />
        </mxCell>
        <mxCell id="iq4_zU8uzsKBCmtEDNEx-242" value="Name" style="ellipse;whiteSpace=wrap;html=1;align=center;" parent="1" vertex="1">
          <mxGeometry x="619.7" y="837.01" width="100" height="40" as="geometry" />
        </mxCell>
        <mxCell id="iq4_zU8uzsKBCmtEDNEx-243" value="EventPayment" style="whiteSpace=wrap;html=1;align=center;" parent="1" vertex="1">
          <mxGeometry x="924.78" y="967.01" width="100" height="40" as="geometry" />
        </mxCell>
        <mxCell id="iq4_zU8uzsKBCmtEDNEx-245" value="EventID" style="ellipse;whiteSpace=wrap;html=1;align=center;" parent="1" vertex="1">
          <mxGeometry x="1124.78" y="927.01" width="100" height="40" as="geometry" />
        </mxCell>
        <mxCell id="iq4_zU8uzsKBCmtEDNEx-246" value="CustomerID" style="ellipse;whiteSpace=wrap;html=1;align=center;" parent="1" vertex="1">
          <mxGeometry x="1174.78" y="997.01" width="100" height="40" as="geometry" />
        </mxCell>
        <mxCell id="iq4_zU8uzsKBCmtEDNEx-247" style="edgeStyle=orthogonalEdgeStyle;rounded=0;orthogonalLoop=1;jettySize=auto;html=1;exitX=0.5;exitY=1;exitDx=0;exitDy=0;" parent="1" edge="1">
          <mxGeometry relative="1" as="geometry">
            <mxPoint x="1098.44" y="917.0100000000002" as="sourcePoint" />
            <mxPoint x="1098.44" y="917.0100000000002" as="targetPoint" />
          </mxGeometry>
        </mxCell>
        <mxCell id="iq4_zU8uzsKBCmtEDNEx-248" value="Payment Amount" style="ellipse;whiteSpace=wrap;html=1;align=center;" parent="1" vertex="1">
          <mxGeometry x="769.78" y="897.01" width="100" height="40" as="geometry" />
        </mxCell>
        <mxCell id="iq4_zU8uzsKBCmtEDNEx-249" value="PaymentType" style="ellipse;whiteSpace=wrap;html=1;align=center;" parent="1" vertex="1">
          <mxGeometry x="690" y="967.01" width="100" height="40" as="geometry" />
        </mxCell>
        <mxCell id="iq4_zU8uzsKBCmtEDNEx-250" value="Employee ID" style="ellipse;whiteSpace=wrap;html=1;align=center;" parent="1" vertex="1">
          <mxGeometry x="769.78" y="1047.01" width="100" height="40" as="geometry" />
        </mxCell>
        <mxCell id="iq4_zU8uzsKBCmtEDNEx-251" value="" style="line;strokeWidth=2;html=1;rotation=-30;" parent="1" vertex="1">
          <mxGeometry x="984.43" y="934.3399999999999" width="99.39" height="10" as="geometry" />
        </mxCell>
        <mxCell id="iq4_zU8uzsKBCmtEDNEx-252" value="" style="line;strokeWidth=2;html=1;rotation=30;" parent="1" vertex="1">
          <mxGeometry x="851.6199999999999" y="946.6600000000001" width="78.61" height="10" as="geometry" />
        </mxCell>
        <mxCell id="iq4_zU8uzsKBCmtEDNEx-253" value="" style="line;strokeWidth=2;html=1;" parent="1" vertex="1">
          <mxGeometry x="790" y="982.01" width="134.78" height="10" as="geometry" />
        </mxCell>
        <mxCell id="iq4_zU8uzsKBCmtEDNEx-254" value="" style="line;strokeWidth=2;html=1;rotation=-30;" parent="1" vertex="1">
          <mxGeometry x="856.95" y="1004.23" width="111.11" height="60" as="geometry" />
        </mxCell>
        <mxCell id="iq4_zU8uzsKBCmtEDNEx-255" value="" style="line;strokeWidth=2;html=1;rotation=5;" parent="1" vertex="1">
          <mxGeometry x="1024.6799999999998" y="1006.4100000000001" width="150" height="10" as="geometry" />
        </mxCell>
        <mxCell id="iq4_zU8uzsKBCmtEDNEx-256" value="" style="line;strokeWidth=2;html=1;rotation=-15;" parent="1" vertex="1">
          <mxGeometry x="1024.46" y="969.78" width="120.02" height="10" as="geometry" />
        </mxCell>
        <mxCell id="iq4_zU8uzsKBCmtEDNEx-257" value="Id" style="ellipse;whiteSpace=wrap;html=1;align=center;fontStyle=4;" parent="1" vertex="1">
          <mxGeometry x="1039.04" y="877.01" width="100" height="40" as="geometry" />
        </mxCell>
        <mxCell id="Gzfp780XZHJY38I-ThZH-1" value="Pssword" style="ellipse;whiteSpace=wrap;html=1;align=center;" parent="1" vertex="1">
          <mxGeometry x="403.73" y="5" width="70" height="40" as="geometry" />
        </mxCell>
        <mxCell id="SQVfS9ZGtGnzBnDmVaWN-1" value="" style="endArrow=none;html=1;rounded=0;" parent="1" target="SQVfS9ZGtGnzBnDmVaWN-2" edge="1">
          <mxGeometry relative="1" as="geometry">
            <mxPoint x="303.33" y="-139.55" as="sourcePoint" />
            <mxPoint x="303.33" y="-139.55" as="targetPoint" />
          </mxGeometry>
        </mxCell>
        <mxCell id="SQVfS9ZGtGnzBnDmVaWN-2" value="Admin" style="ellipse;whiteSpace=wrap;html=1;align=center;" parent="1" vertex="1">
          <mxGeometry x="245.82999999999998" y="-219.55" width="67.5" height="40" as="geometry" />
        </mxCell>
        <mxCell id="SQVfS9ZGtGnzBnDmVaWN-3" value="" style="rounded=0;orthogonalLoop=1;jettySize=auto;html=1;endArrow=none;endFill=0;" parent="1" source="SQVfS9ZGtGnzBnDmVaWN-4" edge="1">
          <mxGeometry relative="1" as="geometry">
            <mxPoint x="325.40108199299976" y="-136.45840634168604" as="targetPoint" />
          </mxGeometry>
        </mxCell>
        <mxCell id="SQVfS9ZGtGnzBnDmVaWN-4" value="Customer" style="ellipse;whiteSpace=wrap;html=1;align=center;" parent="1" vertex="1">
          <mxGeometry x="335.64" y="-219.55" width="58.96" height="40" as="geometry" />
        </mxCell>
        <mxCell id="SQVfS9ZGtGnzBnDmVaWN-5" value="Employee" style="ellipse;whiteSpace=wrap;html=1;align=center;" parent="1" vertex="1">
          <mxGeometry x="385.61999999999995" y="-200" width="67.5" height="40" as="geometry" />
        </mxCell>
        <mxCell id="SQVfS9ZGtGnzBnDmVaWN-6" value="" style="rounded=0;orthogonalLoop=1;jettySize=auto;html=1;endArrow=none;endFill=0;" parent="1" edge="1">
          <mxGeometry relative="1" as="geometry">
            <mxPoint x="361.7010819929997" y="-124.89840634168598" as="targetPoint" />
            <mxPoint x="390.00489392683204" y="-169.55021326642117" as="sourcePoint" />
          </mxGeometry>
        </mxCell>
        <mxCell id="SQVfS9ZGtGnzBnDmVaWN-7" value="Booked" style="shape=rhombus;perimeter=rhombusPerimeter;whiteSpace=wrap;html=1;align=center;" parent="1" vertex="1">
          <mxGeometry x="583.73" y="80" width="70" height="60" as="geometry" />
        </mxCell>
        <mxCell id="SQVfS9ZGtGnzBnDmVaWN-10" value="Manage" style="shape=rhombus;perimeter=rhombusPerimeter;whiteSpace=wrap;html=1;align=center;" parent="1" vertex="1">
          <mxGeometry x="453.12" y="378.1" width="66.88" height="60" as="geometry" />
        </mxCell>
        <mxCell id="SQVfS9ZGtGnzBnDmVaWN-16" value="" style="edgeStyle=entityRelationEdgeStyle;fontSize=12;html=1;endArrow=ERoneToMany;startArrow=ERzeroToOne;rounded=0;exitX=0.893;exitY=1;exitDx=0;exitDy=0;exitPerimeter=0;entryX=0;entryY=0.5;entryDx=0;entryDy=0;" parent="1" source="iq4_zU8uzsKBCmtEDNEx-103" target="SQVfS9ZGtGnzBnDmVaWN-10" edge="1">
          <mxGeometry width="100" height="100" relative="1" as="geometry">
            <mxPoint x="410" y="440" as="sourcePoint" />
            <mxPoint x="510" y="340" as="targetPoint" />
          </mxGeometry>
        </mxCell>
        <mxCell id="SQVfS9ZGtGnzBnDmVaWN-17" value="" style="edgeStyle=entityRelationEdgeStyle;fontSize=12;html=1;endArrow=ERoneToMany;startArrow=ERzeroToOne;rounded=0;exitX=1;exitY=0.5;exitDx=0;exitDy=0;" parent="1" source="SQVfS9ZGtGnzBnDmVaWN-10" target="iq4_zU8uzsKBCmtEDNEx-175" edge="1">
          <mxGeometry width="100" height="100" relative="1" as="geometry">
            <mxPoint x="279.99" y="280" as="sourcePoint" />
            <mxPoint x="463.1199999999999" y="418.0999999999999" as="targetPoint" />
          </mxGeometry>
        </mxCell>
        <mxCell id="SQVfS9ZGtGnzBnDmVaWN-21" style="edgeStyle=none;rounded=0;orthogonalLoop=1;jettySize=auto;html=1;exitX=0;exitY=0.5;exitDx=0;exitDy=0;exitPerimeter=0;endArrow=none;endFill=0;" parent="1" source="SQVfS9ZGtGnzBnDmVaWN-20" target="iq4_zU8uzsKBCmtEDNEx-154" edge="1">
          <mxGeometry relative="1" as="geometry" />
        </mxCell>
        <mxCell id="SQVfS9ZGtGnzBnDmVaWN-20" value="" style="line;strokeWidth=2;html=1;rotation=15;" parent="1" vertex="1">
          <mxGeometry x="670.12" y="398.04" width="60.12" height="10" as="geometry" />
        </mxCell>
        <mxCell id="SQVfS9ZGtGnzBnDmVaWN-22" value="is a" style="shape=rhombus;perimeter=rhombusPerimeter;whiteSpace=wrap;html=1;align=center;" parent="1" vertex="1">
          <mxGeometry x="425" y="550" width="66.88" height="60" as="geometry" />
        </mxCell>
        <mxCell id="SQVfS9ZGtGnzBnDmVaWN-26" value="" style="endArrow=none;html=1;rounded=0;edgeStyle=orthogonalEdgeStyle;exitX=1;exitY=0.5;exitDx=0;exitDy=0;entryX=0;entryY=0.5;entryDx=0;entryDy=0;" parent="1" source="iq4_zU8uzsKBCmtEDNEx-198" target="SQVfS9ZGtGnzBnDmVaWN-22" edge="1">
          <mxGeometry width="50" height="50" relative="1" as="geometry">
            <mxPoint x="380" y="510" as="sourcePoint" />
            <mxPoint x="430" y="460" as="targetPoint" />
          </mxGeometry>
        </mxCell>
        <mxCell id="SQVfS9ZGtGnzBnDmVaWN-27" value="" style="endArrow=none;html=1;rounded=0;edgeStyle=orthogonalEdgeStyle;exitX=0.5;exitY=1;exitDx=0;exitDy=0;entryX=1;entryY=0.5;entryDx=0;entryDy=0;" parent="1" source="iq4_zU8uzsKBCmtEDNEx-175" target="SQVfS9ZGtGnzBnDmVaWN-22" edge="1">
          <mxGeometry width="50" height="50" relative="1" as="geometry">
            <mxPoint x="260.69000000000005" y="554.4499999999998" as="sourcePoint" />
            <mxPoint x="433.1199999999999" y="534.9099999999999" as="targetPoint" />
          </mxGeometry>
        </mxCell>
        <mxCell id="SQVfS9ZGtGnzBnDmVaWN-28" value="has a" style="shape=rhombus;perimeter=rhombusPerimeter;whiteSpace=wrap;html=1;align=center;" parent="1" vertex="1">
          <mxGeometry x="365.29" y="656.25" width="66.88" height="60" as="geometry" />
        </mxCell>
        <mxCell id="SQVfS9ZGtGnzBnDmVaWN-29" value="" style="line;strokeWidth=1;rotatable=0;dashed=0;labelPosition=right;align=left;verticalAlign=middle;spacingTop=0;spacingLeft=6;points=[];portConstraint=eastwest;" parent="1" vertex="1">
          <mxGeometry x="293.73" y="681.25" width="66.27" height="10" as="geometry" />
        </mxCell>
        <mxCell id="SQVfS9ZGtGnzBnDmVaWN-33" value="" style="endArrow=none;html=1;rounded=0;edgeStyle=orthogonalEdgeStyle;entryX=0.25;entryY=0;entryDx=0;entryDy=0;" parent="1" target="iq4_zU8uzsKBCmtEDNEx-231" edge="1">
          <mxGeometry width="50" height="50" relative="1" as="geometry">
            <mxPoint x="430" y="688" as="sourcePoint" />
            <mxPoint x="600" y="723.75" as="targetPoint" />
            <Array as="points">
              <mxPoint x="501" y="688" />
            </Array>
          </mxGeometry>
        </mxCell>
        <mxCell id="SQVfS9ZGtGnzBnDmVaWN-39" value="" style="edgeStyle=none;rounded=0;orthogonalLoop=1;jettySize=auto;html=1;endArrow=none;endFill=0;" parent="1" source="SQVfS9ZGtGnzBnDmVaWN-34" target="iq4_zU8uzsKBCmtEDNEx-249" edge="1">
          <mxGeometry relative="1" as="geometry" />
        </mxCell>
        <mxCell id="SQVfS9ZGtGnzBnDmVaWN-34" value="Bank_Id" style="ellipse;whiteSpace=wrap;html=1;align=center;" parent="1" vertex="1">
          <mxGeometry x="580.02" y="934.34" width="69.98" height="40" as="geometry" />
        </mxCell>
        <mxCell id="SQVfS9ZGtGnzBnDmVaWN-38" value="" style="edgeStyle=none;rounded=0;orthogonalLoop=1;jettySize=auto;html=1;endArrow=none;endFill=0;entryX=0;entryY=0.5;entryDx=0;entryDy=0;" parent="1" source="SQVfS9ZGtGnzBnDmVaWN-35" target="iq4_zU8uzsKBCmtEDNEx-249" edge="1">
          <mxGeometry relative="1" as="geometry" />
        </mxCell>
        <mxCell id="SQVfS9ZGtGnzBnDmVaWN-35" value="Cash" style="ellipse;whiteSpace=wrap;html=1;align=center;" parent="1" vertex="1">
          <mxGeometry x="560" y="982.01" width="60" height="40" as="geometry" />
        </mxCell>
        <mxCell id="SQVfS9ZGtGnzBnDmVaWN-37" value="" style="edgeStyle=none;rounded=0;orthogonalLoop=1;jettySize=auto;html=1;endArrow=none;endFill=0;entryX=0.26;entryY=0.95;entryDx=0;entryDy=0;entryPerimeter=0;" parent="1" source="SQVfS9ZGtGnzBnDmVaWN-36" target="iq4_zU8uzsKBCmtEDNEx-249" edge="1">
          <mxGeometry relative="1" as="geometry" />
        </mxCell>
        <mxCell id="SQVfS9ZGtGnzBnDmVaWN-36" value="Cheque_No&lt;span style=&quot;color: rgba(0 , 0 , 0 , 0) ; font-family: monospace ; font-size: 0px&quot;&gt;%3CmxGraphModel%3E%3Croot%3E%3CmxCell%20id%3D%220%22%2F%3E%3CmxCell%20id%3D%221%22%20parent%3D%220%22%2F%3E%3CmxCell%20id%3D%222%22%20value%3D%22Bank_Id%22%20style%3D%22ellipse%3BwhiteSpace%3Dwrap%3Bhtml%3D1%3Balign%3Dcenter%3B%22%20vertex%3D%221%22%20parent%3D%221%22%3E%3CmxGeometry%20x%3D%22580.02%22%20y%3D%22934.34%22%20width%3D%2269.98%22%20height%3D%2240%22%20as%3D%22geometry%22%2F%3E%3C%2FmxCell%3E%3C%2Froot%3E%3C%2FmxGraphModel%3E&lt;/span&gt;" style="ellipse;whiteSpace=wrap;html=1;align=center;" parent="1" vertex="1">
          <mxGeometry x="600" y="1022.01" width="69.98" height="40" as="geometry" />
        </mxCell>
        <mxCell id="SQVfS9ZGtGnzBnDmVaWN-41" value="" style="edgeStyle=none;rounded=0;orthogonalLoop=1;jettySize=auto;html=1;endArrow=none;endFill=0;" parent="1" source="SQVfS9ZGtGnzBnDmVaWN-40" target="iq4_zU8uzsKBCmtEDNEx-249" edge="1">
          <mxGeometry relative="1" as="geometry" />
        </mxCell>
        <mxCell id="SQVfS9ZGtGnzBnDmVaWN-40" value="TransactionId" style="ellipse;whiteSpace=wrap;html=1;align=center;" parent="1" vertex="1">
          <mxGeometry x="672.18" y="1037.01" width="87.82" height="40" as="geometry" />
        </mxCell>
        <mxCell id="SQVfS9ZGtGnzBnDmVaWN-44" value="Pays" style="shape=rhombus;perimeter=rhombusPerimeter;whiteSpace=wrap;html=1;align=center;" parent="1" vertex="1">
          <mxGeometry x="830" y="780" width="80" height="60" as="geometry" />
        </mxCell>
        <mxCell id="jsXOVDmcwqpU_zQK6Mg7-2" value="" style="fontSize=12;html=1;endArrow=ERoneToMany;startArrow=ERoneToMany;entryX=0.5;entryY=0;entryDx=0;entryDy=0;exitX=1;exitY=0.5;exitDx=0;exitDy=0;exitPerimeter=0;" parent="1" source="SQVfS9ZGtGnzBnDmVaWN-7" target="iq4_zU8uzsKBCmtEDNEx-175" edge="1">
          <mxGeometry width="100" height="100" relative="1" as="geometry">
            <mxPoint x="653.73" y="115" as="sourcePoint" />
            <mxPoint x="780" y="320" as="targetPoint" />
          </mxGeometry>
        </mxCell>
        <mxCell id="jsXOVDmcwqpU_zQK6Mg7-3" value="" style="fontSize=12;html=1;endArrow=ERoneToMany;startArrow=ERoneToMany;exitX=0.905;exitY=1.025;exitDx=0;exitDy=0;exitPerimeter=0;" parent="1" source="iq4_zU8uzsKBCmtEDNEx-34" edge="1">
          <mxGeometry width="100" height="100" relative="1" as="geometry">
            <mxPoint x="458.85" y="47.48" as="sourcePoint" />
            <mxPoint x="583.73" y="112.52" as="targetPoint" />
          </mxGeometry>
        </mxCell>
        <mxCell id="jiaM5LDZTvimnd_fn9Zw-1" value="" style="edgeStyle=orthogonalEdgeStyle;fontSize=12;html=1;endArrow=ERmany;startArrow=ERmany;entryX=0;entryY=0.5;entryDx=0;entryDy=0;exitX=0.63;exitY=1.051;exitDx=0;exitDy=0;exitPerimeter=0;" parent="1" source="iq4_zU8uzsKBCmtEDNEx-175" target="iq4_zU8uzsKBCmtEDNEx-222" edge="1">
          <mxGeometry width="100" height="100" relative="1" as="geometry">
            <mxPoint x="650" y="710" as="sourcePoint" />
            <mxPoint x="750" y="610" as="targetPoint" />
          </mxGeometry>
        </mxCell>
        <mxCell id="jiaM5LDZTvimnd_fn9Zw-2" value="" style="edgeStyle=orthogonalEdgeStyle;fontSize=12;html=1;endArrow=ERmany;startArrow=ERmany;" parent="1" target="SQVfS9ZGtGnzBnDmVaWN-44" edge="1">
          <mxGeometry width="100" height="100" relative="1" as="geometry">
            <mxPoint x="930.23" y="967.01" as="sourcePoint" />
            <mxPoint x="1030.23" y="867.01" as="targetPoint" />
            <Array as="points">
              <mxPoint x="930" y="920" />
              <mxPoint x="920" y="920" />
              <mxPoint x="920" y="810" />
            </Array>
          </mxGeometry>
        </mxCell>
        <mxCell id="jiaM5LDZTvimnd_fn9Zw-3" value="" style="edgeStyle=orthogonalEdgeStyle;fontSize=12;html=1;endArrow=ERmany;startArrow=ERmany;entryX=1;entryY=0.75;entryDx=0;entryDy=0;" parent="1" target="iq4_zU8uzsKBCmtEDNEx-34" edge="1">
          <mxGeometry width="100" height="100" relative="1" as="geometry">
            <mxPoint x="870" y="780" as="sourcePoint" />
            <mxPoint x="490" y="-20" as="targetPoint" />
            <Array as="points">
              <mxPoint x="870" y="730" />
              <mxPoint x="540" y="730" />
              <mxPoint x="540" y="440" />
              <mxPoint x="560" y="440" />
              <mxPoint x="560" y="170" />
              <mxPoint x="522" y="170" />
              <mxPoint x="522" />
              <mxPoint x="490" />
              <mxPoint x="490" y="-10" />
            </Array>
          </mxGeometry>
        </mxCell>
      </root>
    </mxGraphModel>
  </diagram>
</mxfile>
